<?xml version="1.0" encoding="UTF-8" standalone="no"?>
<!DOCTYPE svg PUBLIC "-//W3C//DTD SVG 1.1//EN"
 "http://www.w3.org/Graphics/SVG/1.1/DTD/svg11.dtd">
<!-- Generated by graphviz version 2.28.0 (20111028.1807)
 -->
<!-- Title: _anonymous_4 Pages: 1 -->
<svg width="334pt" height="916pt"
 viewBox="0.00 0.00 333.55 916.00" xmlns="http://www.w3.org/2000/svg" xmlns:xlink="http://www.w3.org/1999/xlink">
<g id="graph1" class="graph" transform="scale(1 1) rotate(0) translate(4 912)">
<title>_anonymous_4</title>
<polygon fill="white" stroke="white" points="-4,5 -4,-912 330.552,-912 330.552,5 -4,5"/>
<g id="node1" class="node"><title></title>
</g>
<!-- id_most_significant_bit -->
<g id="node3" class="node"><title>id_most_significant_bit</title>
<ellipse fill="none" stroke="black" cx="188" cy="-732" rx="102.367" ry="102.49"/>
<text text-anchor="middle" x="188" y="-726.4" font-family="Times,serif" font-size="14.00">id_most_significant_bit</text>
</g>
<!-- &#45;&gt;id_most_significant_bit -->
<g id="edge2" class="edge"><title>&#45;&gt;id_most_significant_bit</title>
<path fill="none" stroke="black" d="M188,-871.709C188,-864.255 188,-854.864 188,-844.499"/>
<polygon fill="black" stroke="black" points="191.5,-844.295 188,-834.295 184.5,-844.295 191.5,-844.295"/>
</g>
<!-- increment_counter -->
<g id="node5" class="node"><title>increment_counter</title>
<ellipse fill="none" stroke="black" cx="188" cy="-492" rx="83.1461" ry="83.3612"/>
<text text-anchor="middle" x="188" y="-486.4" font-family="Times,serif" font-size="14.00">increment_counter</text>
</g>
<!-- id_most_significant_bit&#45;&gt;increment_counter -->
<g id="edge4" class="edge"><title>id_most_significant_bit&#45;&gt;increment_counter</title>
<path fill="none" stroke="black" d="M188,-629.721C188,-615.163 188,-600.242 188,-585.858"/>
<polygon fill="black" stroke="black" points="191.5,-585.491 188,-575.491 184.5,-585.491 191.5,-585.491"/>
<text text-anchor="middle" x="204.721" y="-597.4" font-family="Times,serif" font-size="14.00">1/X;L</text>
</g>
<!-- increment_counter&#45;&gt;increment_counter -->
<g id="edge10" class="edge"><title>increment_counter&#45;&gt;increment_counter</title>
<path fill="none" stroke="black" d="M269.233,-510.611C281.044,-507.657 289,-501.453 289,-492 289,-485.353 285.066,-480.313 278.626,-476.879"/>
<polygon fill="black" stroke="black" points="279.826,-473.592 269.233,-473.389 277.388,-480.153 279.826,-473.592"/>
<text text-anchor="middle" x="307.276" y="-494.8" font-family="Times,serif" font-size="14.00">X/X;L</text>
<text text-anchor="middle" x="307.276" y="-478" font-family="Times,serif" font-size="14.00">1/0;L</text>
</g>
<!-- return_to_input -->
<g id="node11" class="node"><title>return_to_input</title>
<ellipse fill="none" stroke="black" cx="71" cy="-267" rx="71.1714" ry="71.2286"/>
<text text-anchor="middle" x="71" y="-261.4" font-family="Times,serif" font-size="14.00">return_to_input</text>
</g>
<!-- increment_counter&#45;&gt;return_to_input -->
<g id="edge12" class="edge"><title>increment_counter&#45;&gt;return_to_input</title>
<path fill="none" stroke="black" d="M149.528,-417.673C136.359,-392.573 121.65,-364.539 108.555,-339.579"/>
<polygon fill="black" stroke="black" points="111.555,-337.763 103.809,-330.534 105.356,-341.015 111.555,-337.763"/>
<text text-anchor="middle" x="149.559" y="-375.8" font-family="Times,serif" font-size="14.00">0/1;R</text>
<text text-anchor="middle" x="149.559" y="-359" font-family="Times,serif" font-size="14.00">_/1;R</text>
</g>
<!-- delete_next_bit -->
<g id="node6" class="node"><title>delete_next_bit</title>
<ellipse fill="none" stroke="black" cx="175" cy="-71" rx="70.3506" ry="70.6345"/>
<text text-anchor="middle" x="175" y="-65.4" font-family="Times,serif" font-size="14.00">delete_next_bit</text>
</g>
<!-- delete_next_bit&#45;&gt;increment_counter -->
<g id="edge6" class="edge"><title>delete_next_bit&#45;&gt;increment_counter</title>
<path fill="none" stroke="black" d="M191.21,-139.851C194.847,-157.984 198.168,-177.644 200,-196 206.747,-263.602 203.291,-340.28 198.388,-398.515"/>
<polygon fill="black" stroke="black" points="194.873,-398.533 197.491,-408.799 201.847,-399.141 194.873,-398.533"/>
<text text-anchor="middle" x="219.721" y="-269.8" font-family="Times,serif" font-size="14.00">0/X;L</text>
<text text-anchor="middle" x="219.721" y="-253" font-family="Times,serif" font-size="14.00">1/X;L</text>
</g>
<!-- delete_next_bit&#45;&gt;delete_next_bit -->
<g id="edge8" class="edge"><title>delete_next_bit&#45;&gt;delete_next_bit</title>
<path fill="none" stroke="black" d="M243.26,-88.1537C254.921,-85.8097 263,-80.0918 263,-71 263,-64.7494 259.181,-60.0935 253.006,-57.0323"/>
<polygon fill="black" stroke="black" points="253.853,-53.627 243.26,-53.8463 251.677,-60.2805 253.853,-53.627"/>
<text text-anchor="middle" x="281.669" y="-65.4" font-family="Times,serif" font-size="14.00">X/X;R</text>
</g>
<!-- return_to_input&#45;&gt;delete_next_bit -->
<g id="edge16" class="edge"><title>return_to_input&#45;&gt;delete_next_bit</title>
<path fill="none" stroke="black" d="M104.192,-204.084C114.704,-184.475 126.401,-162.655 137.211,-142.491"/>
<polygon fill="black" stroke="black" points="140.305,-144.128 141.945,-133.661 134.135,-140.821 140.305,-144.128"/>
<text text-anchor="middle" x="145.669" y="-163.4" font-family="Times,serif" font-size="14.00">X/X;R</text>
</g>
<!-- return_to_input&#45;&gt;return_to_input -->
<g id="edge14" class="edge"><title>return_to_input&#45;&gt;return_to_input</title>
<path fill="none" stroke="black" d="M140.036,-284.154C151.829,-281.81 160,-276.092 160,-267 160,-260.749 156.138,-256.093 149.892,-253.032"/>
<polygon fill="black" stroke="black" points="150.628,-249.592 140.036,-249.846 148.474,-256.252 150.628,-249.592"/>
<text text-anchor="middle" x="175.559" y="-269.8" font-family="Times,serif" font-size="14.00">0/0;R</text>
<text text-anchor="middle" x="175.559" y="-253" font-family="Times,serif" font-size="14.00">1/1;R</text>
</g>
</g>
</svg>
